<?xml version="1.0" encoding="utf-8"?>
<!-- Generator: Adobe Illustrator 24.0.1, SVG Export Plug-In . SVG Version: 6.00 Build 0)  -->
<svg version="1.1" id="Layer_1" xmlns="http://www.w3.org/2000/svg" xmlns:xlink="http://www.w3.org/1999/xlink" x="0px" y="0px"
	 viewBox="0 0 259.43 69.66" style="enable-background:new 0 0 259.43 69.66;" xml:space="preserve">
<style type="text/css">
	.st0{fill:#1A4792;}
	.st1{fill:#383336;}
</style>
<g>
	<path id="Path_3_3_" class="st0" d="M34.85,0c-9.27-0.13-18.17,3.57-24.61,10.24C3.58,16.67-0.13,25.57,0,34.82
		C-0.06,40,1.06,45.12,3.28,49.79c4.38-12.95,11.56-24.78,21.04-34.64c5.12-5.4,10.73-10.29,16.77-14.63h0.01
		C39.04,0.18,36.95,0,34.85,0 M50.53,3.66L50.53,3.66c-15.48,6.47-29.54,24.67-35.48,36.99C12,46.97,9.86,52.76,9.55,58.74
		c0.23,0.24,0.45,0.47,0.69,0.71c6.45,6.65,15.35,10.34,24.61,10.21c9.25,0.13,18.14-3.56,24.57-10.21c4.97-4.79,8.33-11,9.62-17.78
		c-5.99,8.37-12.79,15.38-17.68,18.91c-4.74,3.53-10.17,6.01-15.94,7.29l-5.22,0.47c-10.21-0.28-16.42-8.54-8.16-28.86
		c5.24-12.88,14.5-22.17,24.88-26.55c17.14-7.23,22.01,9.11,13.98,21.56c-1.52,2.46-3.18,4.83-4.99,7.09
		c-4.12,4.98-19.26,13.63-19.2,1.24c0.01-2.4,0.55-4.5,1.14-5.08c0.28-0.27,0.08,3.9,2.68,4.59c10.66,2.82,19.73-17,12.11-20.97
		c-7.91-4.12-20.7,10.58-24.6,21.63c-2.58,7.34-1.26,14.3,4.15,14.7c16.25,1.19,30.63-14.32,36.85-29.37l0,0l0.01-0.03
		c0.02-0.03,0.03-0.05,0.03-0.08c-1.27-6.86-4.64-13.15-9.66-18C56.81,7.59,53.8,5.39,50.53,3.66"/>
	<g>
		<polygon class="st1" points="93.8,14.85 84.81,14.85 84.81,28.16 86.58,28.16 86.58,22.12 92.82,22.12 92.82,20.55 86.58,20.55 
			86.58,16.42 93.8,16.42 		"/>
		<g>
			<path class="st1" d="M99.8,18.3c-1.2,0-2.21,0.36-3.03,1.07c-0.99,0.86-1.49,2.18-1.49,3.97c0,1.63,0.42,2.87,1.25,3.74
				c0.84,0.87,1.93,1.3,3.28,1.3c0.84,0,1.62-0.2,2.33-0.59c0.71-0.39,1.25-0.94,1.62-1.66c0.38-0.71,0.56-1.69,0.56-2.93
				c0-1.54-0.43-2.73-1.26-3.6C102.2,18.73,101.12,18.3,99.8,18.3 M99.8,27.04c-0.82,0-1.5-0.31-2.04-0.93
				c-0.54-0.62-0.81-1.54-0.81-2.78c0-1.23,0.27-2.16,0.81-2.77c0.54-0.62,1.22-0.92,2.04-0.92c0.81,0,1.48,0.3,2.02,0.92
				c0.54,0.62,0.81,1.52,0.81,2.71c0,1.26-0.28,2.21-0.81,2.83C101.28,26.74,100.61,27.04,99.8,27.04"/>
			<path class="st1" d="M110.77,18.3c-1.34,0-2.36,0.53-3.07,1.59v-1.38h-1.47v9.65h1.63V22.9c0-1.23,0.26-2.08,0.76-2.52
				c0.51-0.44,1.11-0.67,1.81-0.67c0.44,0,0.82,0.1,1.14,0.3c0.32,0.2,0.55,0.46,0.67,0.8c0.13,0.33,0.2,0.83,0.2,1.49v5.87h1.63
				v-5.93c0-0.75-0.03-1.28-0.09-1.59c-0.1-0.47-0.27-0.87-0.51-1.21c-0.24-0.34-0.6-0.62-1.09-0.83
				C111.89,18.41,111.35,18.3,110.77,18.3"/>
			<path class="st1" d="M124.36,14.85h-1.63v4.78c-0.28-0.39-0.66-0.72-1.11-0.96c-0.45-0.25-0.97-0.36-1.55-0.36
				c-0.8,0-1.51,0.2-2.15,0.62c-0.64,0.42-1.12,1.02-1.44,1.81c-0.32,0.78-0.49,1.66-0.49,2.62c0,0.99,0.19,1.86,0.54,2.62
				c0.35,0.76,0.85,1.35,1.5,1.78c0.64,0.43,1.35,0.64,2.12,0.64c1.18,0,2.08-0.48,2.7-1.44v1.22h1.52V14.85z M120.29,27.04
				c-0.71,0-1.33-0.31-1.84-0.92c-0.52-0.61-0.78-1.53-0.78-2.77c0-1.28,0.24-2.21,0.73-2.81c0.49-0.6,1.09-0.89,1.82-0.89
				c0.75,0,1.38,0.31,1.88,0.93c0.51,0.62,0.76,1.59,0.76,2.91c0,1.2-0.25,2.09-0.75,2.67C121.61,26.75,121.01,27.04,120.29,27.04"
				/>
			<path class="st1" d="M131,18.3c-0.83,0-1.56,0.12-2.19,0.35c-0.63,0.23-1.11,0.55-1.44,0.97c-0.33,0.43-0.57,0.97-0.72,1.66
				l1.6,0.22c0.17-0.69,0.44-1.17,0.81-1.44c0.36-0.27,0.93-0.4,1.7-0.4c0.82,0,1.44,0.19,1.86,0.55c0.31,0.28,0.47,0.75,0.47,1.41
				l-0.01,0.43c-0.62,0.22-1.59,0.4-2.91,0.56c-0.65,0.07-1.13,0.15-1.46,0.24c-0.44,0.12-0.83,0.3-1.18,0.54
				c-0.35,0.23-0.63,0.55-0.85,0.94c-0.22,0.39-0.33,0.82-0.33,1.3c0,0.8,0.29,1.47,0.86,1.98c0.57,0.52,1.39,0.78,2.44,0.78
				c0.65,0,1.25-0.1,1.81-0.31c0.56-0.22,1.14-0.58,1.75-1.09c0.05,0.46,0.15,0.85,0.32,1.19h1.71c-0.2-0.37-0.34-0.75-0.41-1.16
				c-0.07-0.4-0.1-1.36-0.1-2.88v-2.18c0-0.72-0.03-1.23-0.09-1.51c-0.09-0.44-0.27-0.82-0.51-1.11c-0.24-0.29-0.62-0.54-1.13-0.73
				C132.5,18.4,131.82,18.3,131,18.3 M130.06,27.11c-0.64,0-1.12-0.15-1.45-0.44c-0.33-0.29-0.49-0.65-0.49-1.09l0.23-0.78
				l0.64-0.52c0.28-0.12,0.75-0.23,1.42-0.33c1.19-0.17,2.08-0.38,2.67-0.62v0.6c0,0.72-0.09,1.26-0.26,1.63
				c-0.23,0.48-0.59,0.86-1.09,1.13C131.25,26.97,130.69,27.11,130.06,27.11"/>
			<path class="st1" d="M141.17,18.3c-0.83,0-1.6,0.2-2.31,0.59c-0.7,0.39-1.23,0.97-1.57,1.76c-0.35,0.78-0.52,1.69-0.52,2.73
				c0,1.61,0.39,2.85,1.2,3.71c0.8,0.86,1.86,1.29,3.18,1.29c1.05,0,1.94-0.31,2.67-0.94c0.72-0.63,1.17-1.5,1.34-2.6l-1.6-0.21
				c-0.12,0.82-0.39,1.42-0.82,1.82c-0.43,0.39-0.96,0.59-1.61,0.59c-0.8,0-1.45-0.3-1.94-0.89c-0.5-0.59-0.75-1.52-0.75-2.83
				c0-1.27,0.26-2.21,0.78-2.8c0.51-0.59,1.18-0.89,2-0.89c0.54,0,1.01,0.17,1.39,0.49c0.39,0.33,0.65,0.81,0.8,1.46l1.59-0.24
				c-0.19-0.98-0.61-1.73-1.28-2.26C143.08,18.56,142.22,18.3,141.17,18.3"/>
		</g>
		<path class="st1" d="M146.58,28.16h1.64v-9.65h-1.64V28.16z M146.58,16.73h1.64v-1.88h-1.64V16.73z"/>
		<g>
			<path class="st1" d="M154.63,18.3c-1.2,0-2.2,0.36-3.03,1.07c-0.99,0.86-1.49,2.18-1.49,3.97c0,1.63,0.42,2.87,1.25,3.74
				c0.83,0.87,1.92,1.3,3.28,1.3c0.84,0,1.62-0.2,2.33-0.59c0.71-0.39,1.25-0.94,1.62-1.66c0.38-0.71,0.56-1.69,0.56-2.93
				c0-1.54-0.42-2.73-1.26-3.6C157.04,18.73,155.95,18.3,154.63,18.3 M154.63,27.04c-0.82,0-1.5-0.31-2.04-0.93
				c-0.54-0.62-0.81-1.54-0.81-2.78c0-1.23,0.28-2.16,0.81-2.77c0.54-0.62,1.22-0.92,2.04-0.92c0.81,0,1.48,0.3,2.02,0.92
				c0.54,0.62,0.81,1.52,0.81,2.71c0,1.26-0.27,2.21-0.81,2.83C156.11,26.74,155.43,27.04,154.63,27.04"/>
			<path class="st1" d="M165.6,18.3c-1.34,0-2.36,0.53-3.07,1.59v-1.38h-1.47v9.65h1.63V22.9c0-1.23,0.25-2.08,0.76-2.52
				c0.51-0.44,1.11-0.67,1.81-0.67c0.44,0,0.82,0.1,1.14,0.3c0.32,0.2,0.55,0.46,0.67,0.8c0.13,0.33,0.19,0.83,0.19,1.49v5.87h1.64
				v-5.93c0-0.75-0.04-1.28-0.09-1.59c-0.1-0.47-0.27-0.87-0.51-1.21c-0.24-0.34-0.61-0.62-1.09-0.83
				C166.72,18.41,166.18,18.3,165.6,18.3"/>
		</g>
		<path class="st1" d="M171.42,28.16h1.64v-9.65h-1.64V28.16z M171.42,16.73h1.64v-1.88h-1.64V16.73z"/>
		<path class="st1" d="M180.72,28.16h1.64v-9.65h-1.64V28.16z M180.72,16.73h1.64v-1.88h-1.64V16.73z"/>
		<polygon class="st1" points="200.91,14.85 198.53,14.85 191.91,21.45 191.91,14.85 190.15,14.85 190.15,28.16 191.91,28.16 
			191.91,23.55 194.09,21.43 198.84,28.16 201.16,28.16 195.33,20.24 		"/>
		<g>
			<path class="st1" d="M206.34,18.3c-1.2,0-2.2,0.36-3.03,1.07c-0.99,0.86-1.49,2.18-1.49,3.97c0,1.63,0.42,2.87,1.25,3.74
				c0.83,0.87,1.92,1.3,3.28,1.3c0.84,0,1.62-0.2,2.33-0.59c0.71-0.39,1.25-0.94,1.62-1.66c0.38-0.71,0.56-1.69,0.56-2.93
				c0-1.54-0.42-2.73-1.26-3.6C208.75,18.73,207.67,18.3,206.34,18.3 M206.34,27.04c-0.82,0-1.5-0.31-2.04-0.93
				c-0.54-0.62-0.81-1.54-0.81-2.78c0-1.23,0.27-2.16,0.81-2.77c0.54-0.62,1.22-0.92,2.04-0.92c0.81,0,1.48,0.3,2.02,0.92
				c0.54,0.62,0.81,1.52,0.81,2.71c0,1.26-0.27,2.21-0.81,2.83C207.83,26.74,207.15,27.04,206.34,27.04"/>
			<path class="st1" d="M215.95,18.3c-0.51,0-0.97,0.07-1.42,0.2c-0.43,0.14-0.78,0.29-1.04,0.48c-0.34,0.24-0.6,0.54-0.8,0.91
				c-0.2,0.37-0.3,0.77-0.3,1.2c0,0.47,0.12,0.9,0.36,1.3c0.24,0.39,0.59,0.7,1.05,0.92c0.46,0.22,1.3,0.48,2.49,0.78
				c0.89,0.23,1.45,0.41,1.67,0.56c0.32,0.21,0.48,0.51,0.48,0.87c0,0.41-0.18,0.78-0.54,1.08c-0.36,0.31-0.92,0.46-1.67,0.46
				c-0.75,0-1.33-0.17-1.74-0.52c-0.42-0.35-0.67-0.84-0.76-1.49l-1.62,0.25c0.18,1.02,0.6,1.79,1.25,2.32
				c0.67,0.52,1.62,0.78,2.87,0.78c0.75,0,1.43-0.14,2.03-0.4c0.6-0.26,1.06-0.64,1.38-1.12c0.31-0.48,0.47-0.99,0.47-1.54
				c0-0.56-0.13-1.02-0.39-1.4c-0.26-0.38-0.62-0.67-1.07-0.86c-0.46-0.19-1.26-0.45-2.42-0.75c-0.8-0.22-1.28-0.36-1.45-0.43
				c-0.28-0.11-0.49-0.26-0.62-0.43l-0.2-0.57c0-0.33,0.16-0.62,0.48-0.87c0.32-0.25,0.86-0.38,1.61-0.38
				c0.64,0,1.13,0.14,1.47,0.42c0.35,0.28,0.56,0.67,0.64,1.17l1.6-0.22c-0.1-0.62-0.29-1.12-0.56-1.49
				c-0.27-0.37-0.7-0.67-1.27-0.88C217.36,18.41,216.7,18.3,215.95,18.3"/>
			<path class="st1" d="M225.99,18.3c-1.2,0-2.2,0.36-3.03,1.07c-0.99,0.86-1.49,2.18-1.49,3.97c0,1.63,0.42,2.87,1.25,3.74
				c0.83,0.87,1.92,1.3,3.28,1.3c0.84,0,1.62-0.2,2.33-0.59c0.71-0.39,1.25-0.94,1.62-1.66c0.38-0.71,0.56-1.69,0.56-2.93
				c0-1.54-0.43-2.73-1.26-3.6C228.4,18.73,227.32,18.3,225.99,18.3 M225.99,27.04c-0.82,0-1.5-0.31-2.04-0.93
				c-0.54-0.62-0.81-1.54-0.81-2.78c0-1.23,0.27-2.16,0.81-2.77c0.54-0.62,1.22-0.92,2.04-0.92c0.81,0,1.48,0.3,2.02,0.92
				c0.54,0.62,0.81,1.52,0.81,2.71c0,1.26-0.27,2.21-0.81,2.83C227.48,26.74,226.81,27.04,225.99,27.04"/>
			<path class="st1" d="M240.28,18.52h-1.68l-2.15,5.89c-0.26,0.72-0.46,1.33-0.61,1.84c-0.19-0.68-0.39-1.33-0.62-1.95l-2.07-5.78
				h-1.73l3.67,9.65h1.53L240.28,18.52z"/>
			<path class="st1" d="M248.18,14.77h-1.71v1.86h1.71V14.77z M244.79,14.77h-1.71v1.86h1.71V14.77z M245.69,18.3
				c-1.33,0-2.42,0.45-3.25,1.35c-0.84,0.89-1.26,2.15-1.26,3.77c0,1.57,0.42,2.79,1.24,3.66c0.83,0.87,1.95,1.31,3.36,1.31
				c1.12,0,2.04-0.27,2.76-0.81c0.73-0.55,1.22-1.32,1.49-2.3l-1.7-0.21c-0.25,0.68-0.58,1.19-1.01,1.51
				c-0.43,0.31-0.94,0.47-1.54,0.47c-0.8,0-1.47-0.28-2.02-0.85c-0.54-0.57-0.84-1.38-0.9-2.44h7.2l0.01-0.44
				c0-1.59-0.41-2.83-1.22-3.7C248.03,18.74,246.98,18.3,245.69,18.3 M242.96,22.42c0.06-0.85,0.34-1.52,0.85-2.02
				c0.52-0.5,1.15-0.75,1.9-0.75c0.83,0,1.51,0.31,2.03,0.94c0.33,0.41,0.54,1.02,0.61,1.83H242.96z"/>
			<path class="st1" d="M255.25,18.3c-0.51,0-0.97,0.07-1.41,0.2c-0.44,0.14-0.79,0.29-1.04,0.48c-0.35,0.24-0.61,0.54-0.81,0.91
				c-0.2,0.37-0.3,0.77-0.3,1.2c0,0.47,0.12,0.9,0.36,1.3c0.24,0.39,0.59,0.7,1.06,0.92c0.46,0.22,1.29,0.48,2.49,0.78
				c0.89,0.23,1.44,0.41,1.67,0.56c0.32,0.21,0.48,0.51,0.48,0.87c0,0.41-0.19,0.78-0.55,1.08c-0.36,0.31-0.92,0.46-1.67,0.46
				c-0.75,0-1.33-0.17-1.75-0.52c-0.42-0.35-0.67-0.84-0.76-1.49l-1.62,0.25c0.18,1.02,0.6,1.79,1.26,2.32
				c0.66,0.52,1.62,0.78,2.87,0.78c0.75,0,1.44-0.14,2.04-0.4c0.6-0.26,1.05-0.64,1.38-1.12c0.31-0.48,0.47-0.99,0.47-1.54
				c0-0.56-0.13-1.02-0.39-1.4c-0.27-0.38-0.62-0.67-1.07-0.86c-0.46-0.19-1.27-0.45-2.42-0.75c-0.8-0.22-1.28-0.36-1.44-0.43
				c-0.29-0.11-0.5-0.26-0.63-0.43l-0.2-0.57c0-0.33,0.15-0.62,0.47-0.87c0.32-0.25,0.86-0.38,1.61-0.38c0.64,0,1.13,0.14,1.48,0.42
				c0.35,0.28,0.56,0.67,0.63,1.17l1.6-0.22c-0.1-0.62-0.29-1.12-0.56-1.49c-0.27-0.37-0.69-0.67-1.26-0.88
				C256.67,18.41,256.01,18.3,255.25,18.3"/>
		</g>
	</g>
	<g>
		<path class="st1" d="M89.1,41.12c-0.63,0-1.17,0.12-1.6,0.37c-0.44,0.25-0.85,0.61-1.2,1.1v-1.25h-1.49v13.35h1.63v-4.7
			c0.28,0.35,0.63,0.64,1.07,0.88c0.43,0.23,0.92,0.34,1.47,0.34c0.75,0,1.46-0.21,2.13-0.63c0.67-0.42,1.19-1.03,1.55-1.82
			c0.35-0.78,0.53-1.68,0.53-2.66c0-0.92-0.16-1.77-0.48-2.54c-0.32-0.77-0.8-1.37-1.43-1.79C90.65,41.33,89.93,41.12,89.1,41.12
			 M88.87,49.87c-0.72,0-1.33-0.3-1.83-0.89c-0.5-0.59-0.76-1.51-0.76-2.75c0-1.24,0.27-2.19,0.81-2.84
			c0.54-0.65,1.15-0.98,1.85-0.98c0.7,0,1.31,0.3,1.81,0.92c0.51,0.61,0.76,1.54,0.76,2.76c0,1.3-0.27,2.25-0.78,2.86
			C90.22,49.56,89.6,49.87,88.87,49.87"/>
		<path class="st1" d="M101.61,37.59H99.9v1.86h1.71V37.59z M98.22,37.59h-1.71v1.86h1.71V37.59z M99.12,41.12
			c-1.34,0-2.42,0.45-3.25,1.35c-0.84,0.89-1.26,2.15-1.26,3.77c0,1.57,0.41,2.79,1.25,3.66c0.83,0.87,1.94,1.31,3.36,1.31
			c1.12,0,2.04-0.27,2.76-0.81c0.72-0.55,1.21-1.32,1.48-2.3l-1.69-0.21c-0.25,0.68-0.59,1.19-1.01,1.51
			c-0.43,0.31-0.94,0.47-1.54,0.47c-0.8,0-1.47-0.28-2.02-0.85c-0.54-0.57-0.84-1.38-0.9-2.44h7.2l0.01-0.44
			c0-1.59-0.41-2.83-1.23-3.7C101.46,41.56,100.41,41.12,99.12,41.12 M96.39,45.24c0.06-0.85,0.34-1.52,0.85-2.02
			c0.52-0.5,1.15-0.75,1.9-0.75c0.83,0,1.51,0.31,2.02,0.94c0.35,0.41,0.55,1.02,0.62,1.83H96.39z"/>
		<path class="st1" d="M109.05,41.12c-0.38,0-0.73,0.1-1.05,0.33c-0.31,0.22-0.66,0.67-1.04,1.35v-1.46h-1.47v9.65h1.63v-5.05
			c0-0.68,0.09-1.33,0.28-1.91c0.12-0.38,0.32-0.68,0.6-0.89c0.29-0.21,0.61-0.32,0.97-0.32c0.4,0,0.8,0.12,1.2,0.35l0.56-1.52
			C110.16,41.3,109.6,41.12,109.05,41.12"/>
		<path class="st1" d="M121.68,37.44c-0.9,0-1.71,0.15-2.45,0.45c-0.73,0.3-1.29,0.75-1.67,1.33c-0.38,0.59-0.57,1.22-0.57,1.89
			c0,0.61,0.15,1.17,0.47,1.66c0.31,0.49,0.78,0.9,1.42,1.24c0.49,0.26,1.34,0.54,2.57,0.83c1.22,0.3,2.02,0.51,2.37,0.65
			c0.56,0.21,0.96,0.47,1.2,0.79c0.24,0.31,0.36,0.67,0.36,1.09c0,0.41-0.13,0.79-0.38,1.13c-0.25,0.35-0.64,0.63-1.15,0.83
			c-0.51,0.2-1.11,0.3-1.78,0.3c-0.75,0-1.44-0.14-2.04-0.4c-0.6-0.26-1.05-0.6-1.34-1.04c-0.29-0.42-0.47-0.97-0.55-1.63
			l-1.67,0.14c0.02,0.89,0.27,1.69,0.73,2.39c0.47,0.7,1.11,1.24,1.92,1.59c0.82,0.35,1.83,0.53,3.03,0.53
			c0.95,0,1.8-0.17,2.57-0.52c0.76-0.35,1.34-0.83,1.75-1.46c0.41-0.62,0.61-1.3,0.61-2c0-0.72-0.19-1.34-0.55-1.89
			c-0.38-0.55-0.94-1-1.72-1.36c-0.53-0.23-1.52-0.52-2.95-0.84c-1.43-0.33-2.32-0.65-2.66-0.96c-0.35-0.31-0.52-0.7-0.52-1.18
			c0-0.55,0.24-1.02,0.73-1.41c0.49-0.38,1.26-0.58,2.33-0.58c1.02,0,1.8,0.21,2.33,0.64c0.52,0.43,0.83,1.07,0.93,1.91l1.68-0.12
			c-0.03-0.78-0.25-1.48-0.65-2.1c-0.4-0.62-0.98-1.09-1.74-1.4C123.54,37.6,122.67,37.44,121.68,37.44"/>
		<path class="st1" d="M130.92,37.67h-1.63v13.32h1.63v-5.27c0-0.76,0.09-1.35,0.27-1.78c0.19-0.43,0.49-0.77,0.91-1.02
			c0.43-0.26,0.89-0.38,1.37-0.38c0.65,0,1.15,0.19,1.51,0.56c0.35,0.37,0.53,0.97,0.53,1.79v6.11h1.63v-6.11
			c0-0.95-0.11-1.67-0.34-2.17c-0.23-0.5-0.6-0.89-1.13-1.17c-0.53-0.28-1.15-0.42-1.87-0.42c-1.16,0-2.12,0.44-2.89,1.33V37.67z"/>
		<path class="st1" d="M143.55,41.12c-1.2,0-2.2,0.36-3.03,1.07c-0.99,0.86-1.49,2.18-1.49,3.97c0,1.63,0.42,2.87,1.25,3.74
			c0.83,0.87,1.92,1.3,3.28,1.3c0.84,0,1.62-0.2,2.33-0.59c0.71-0.39,1.25-0.94,1.62-1.66c0.38-0.71,0.56-1.69,0.56-2.93
			c0-1.54-0.43-2.73-1.26-3.6C145.96,41.55,144.88,41.12,143.55,41.12 M143.55,49.87c-0.82,0-1.5-0.31-2.04-0.93
			c-0.54-0.62-0.81-1.54-0.81-2.78c0-1.23,0.27-2.16,0.81-2.77c0.54-0.62,1.22-0.92,2.04-0.92c0.81,0,1.48,0.3,2.02,0.92
			c0.54,0.62,0.81,1.52,0.81,2.71c0,1.26-0.27,2.21-0.81,2.83C145.04,49.56,144.36,49.87,143.55,49.87"/>
		<path class="st1" d="M153.48,41.12c-0.76,0-1.46,0.2-2.1,0.6c-0.64,0.39-1.13,0.98-1.46,1.75c-0.34,0.76-0.51,1.63-0.51,2.6
			c0,1.59,0.41,2.85,1.24,3.76c0.83,0.92,1.81,1.37,2.96,1.37c0.51,0,1-0.12,1.46-0.35c0.45-0.23,0.81-0.53,1.06-0.89v4.72h1.64
			V41.34h-1.47v1.29C155.61,41.63,154.67,41.12,153.48,41.12 M153.74,49.87c-0.73,0-1.35-0.31-1.87-0.93
			c-0.52-0.62-0.78-1.55-0.78-2.8c0-1.28,0.25-2.21,0.74-2.82c0.49-0.6,1.09-0.91,1.8-0.91c0.72,0,1.34,0.33,1.87,0.97
			c0.53,0.65,0.8,1.62,0.8,2.9c0,1.21-0.25,2.1-0.75,2.69C155.04,49.57,154.44,49.87,153.74,49.87"/>
		<path class="st1" d="M166.78,37.59h-1.71v1.86h1.71V37.59z M163.39,37.59h-1.71v1.86h1.71V37.59z M164.29,41.12
			c-1.33,0-2.42,0.45-3.25,1.35c-0.84,0.89-1.25,2.15-1.25,3.77c0,1.57,0.41,2.79,1.24,3.66c0.83,0.87,1.94,1.31,3.36,1.31
			c1.12,0,2.04-0.27,2.76-0.81c0.72-0.55,1.21-1.32,1.48-2.3l-1.69-0.21c-0.25,0.68-0.59,1.19-1.01,1.51
			c-0.43,0.31-0.94,0.47-1.54,0.47c-0.8,0-1.47-0.28-2.02-0.85c-0.54-0.57-0.84-1.38-0.9-2.44h7.2l0.01-0.44
			c0-1.59-0.41-2.83-1.23-3.7C166.63,41.56,165.58,41.12,164.29,41.12 M161.56,45.24c0.06-0.85,0.34-1.52,0.85-2.02
			c0.52-0.5,1.15-0.75,1.9-0.75c0.83,0,1.5,0.31,2.02,0.94c0.35,0.41,0.55,1.02,0.62,1.83H161.56z"/>
		<path class="st1" d="M174.22,41.12c-0.38,0-0.73,0.1-1.05,0.33c-0.31,0.22-0.66,0.67-1.04,1.35v-1.46h-1.47v9.65h1.63v-5.05
			c0-0.68,0.09-1.33,0.28-1.91c0.12-0.38,0.33-0.68,0.61-0.89c0.28-0.21,0.6-0.32,0.96-0.32c0.4,0,0.8,0.12,1.2,0.35l0.56-1.52
			C175.33,41.3,174.78,41.12,174.22,41.12"/>
		<path class="st1" d="M176.89,50.99h1.64v-9.65h-1.64V50.99z M176.89,39.55h1.64v-1.88h-1.64V39.55z"/>
		<g>
			<path class="st1" d="M188.1,37.97l-1.62,0.98v2.39h-1.21v1.27h1.21v5.55c0,0.98,0.06,1.62,0.19,1.93c0.14,0.3,0.36,0.55,0.7,0.74
				c0.32,0.19,0.78,0.28,1.38,0.28c0.36,0,0.77-0.06,1.23-0.15l-0.23-1.44c-0.3,0.04-0.54,0.06-0.72,0.06l-0.56-0.12l-0.28-0.31
				c-0.06-0.14-0.09-0.44-0.09-0.9v-5.64h1.65v-1.27h-1.65V37.97z"/>
			<path class="st1" d="M197.8,37.59h-1.71v1.86h1.71V37.59z M194.41,37.59h-1.71v1.86h1.71V37.59z M195.31,41.12
				c-1.33,0-2.42,0.45-3.25,1.35c-0.84,0.89-1.26,2.15-1.26,3.77c0,1.57,0.41,2.79,1.25,3.66c0.83,0.87,1.94,1.31,3.36,1.31
				c1.12,0,2.04-0.27,2.76-0.81c0.72-0.55,1.22-1.32,1.48-2.3l-1.69-0.21c-0.25,0.68-0.59,1.19-1.01,1.51
				c-0.43,0.31-0.94,0.47-1.54,0.47c-0.8,0-1.47-0.28-2.02-0.85c-0.54-0.57-0.84-1.38-0.9-2.44h7.2l0.01-0.44
				c0-1.59-0.41-2.83-1.23-3.7C197.65,41.56,196.6,41.12,195.31,41.12 M192.58,45.24c0.06-0.85,0.34-1.52,0.85-2.02
				c0.52-0.5,1.15-0.75,1.9-0.75c0.83,0,1.51,0.31,2.02,0.94c0.35,0.41,0.55,1.02,0.62,1.83H192.58z"/>
		</g>
		<polygon class="st1" points="217.58,37.67 215.81,37.67 215.81,43.14 208.89,43.14 208.89,37.67 207.13,37.67 207.13,50.99 
			208.89,50.99 208.89,44.71 215.81,44.71 215.81,50.99 217.58,50.99 		"/>
		<g>
			<path class="st1" d="M224.38,41.12c-0.83,0-1.56,0.12-2.19,0.35c-0.63,0.23-1.11,0.55-1.44,0.97c-0.33,0.43-0.57,0.97-0.72,1.66
				l1.6,0.22c0.17-0.69,0.44-1.17,0.81-1.44c0.36-0.27,0.93-0.4,1.7-0.4c0.82,0,1.44,0.19,1.86,0.55c0.31,0.28,0.47,0.75,0.47,1.41
				l-0.01,0.43c-0.62,0.22-1.6,0.4-2.91,0.56c-0.65,0.07-1.13,0.15-1.46,0.24c-0.44,0.12-0.83,0.3-1.18,0.54
				c-0.35,0.23-0.63,0.55-0.85,0.94c-0.22,0.39-0.33,0.82-0.33,1.3c0,0.8,0.28,1.47,0.86,1.98c0.57,0.52,1.39,0.78,2.44,0.78
				c0.65,0,1.25-0.1,1.81-0.31c0.56-0.22,1.14-0.58,1.75-1.09c0.06,0.46,0.16,0.85,0.33,1.19h1.71c-0.2-0.37-0.34-0.75-0.41-1.16
				c-0.07-0.4-0.1-1.36-0.1-2.88v-2.18c0-0.72-0.03-1.23-0.09-1.51c-0.09-0.44-0.27-0.82-0.51-1.11c-0.25-0.29-0.62-0.54-1.13-0.73
				C225.88,41.22,225.2,41.12,224.38,41.12 M223.44,49.93c-0.64,0-1.12-0.15-1.45-0.44c-0.33-0.29-0.49-0.65-0.49-1.09l0.23-0.78
				l0.64-0.52c0.28-0.12,0.76-0.23,1.42-0.33c1.19-0.17,2.08-0.38,2.67-0.62v0.6c0,0.72-0.09,1.26-0.26,1.63
				c-0.23,0.48-0.59,0.86-1.09,1.13C224.63,49.79,224.07,49.93,223.44,49.93"/>
			<path class="st1" d="M234.94,41.12c-0.63,0-1.17,0.12-1.6,0.37c-0.44,0.25-0.84,0.61-1.19,1.1v-1.25h-1.49v13.35h1.63v-4.7
				c0.28,0.35,0.64,0.64,1.07,0.88c0.43,0.23,0.93,0.34,1.47,0.34c0.75,0,1.46-0.21,2.13-0.63c0.68-0.42,1.2-1.03,1.55-1.82
				c0.36-0.78,0.53-1.68,0.53-2.66c0-0.92-0.16-1.77-0.48-2.54c-0.32-0.77-0.8-1.37-1.42-1.79
				C236.49,41.33,235.77,41.12,234.94,41.12 M234.71,49.87c-0.72,0-1.33-0.3-1.83-0.89c-0.5-0.59-0.75-1.51-0.75-2.75
				c0-1.24,0.27-2.19,0.8-2.84c0.54-0.65,1.15-0.98,1.85-0.98c0.7,0,1.31,0.3,1.81,0.92c0.51,0.61,0.76,1.54,0.76,2.76
				c0,1.3-0.26,2.25-0.78,2.86C236.06,49.56,235.45,49.87,234.71,49.87"/>
			<path class="st1" d="M248.79,41.34h-1.63v5.17c0,0.83-0.09,1.46-0.27,1.89c-0.18,0.44-0.49,0.78-0.91,1.03
				c-0.43,0.25-0.89,0.38-1.38,0.38c-0.49,0-0.91-0.12-1.24-0.37c-0.33-0.25-0.55-0.59-0.65-1.02c-0.07-0.3-0.1-0.87-0.1-1.72v-5.35
				h-1.63v5.98c0,0.7,0.03,1.2,0.1,1.52c0.1,0.48,0.27,0.88,0.51,1.22c0.24,0.33,0.6,0.6,1.1,0.82s1.03,0.33,1.6,0.33
				c1.29,0,2.31-0.54,3.06-1.63v1.41h1.46V41.34z"/>
			<path class="st1" d="M254.89,41.12c-0.38,0-0.73,0.1-1.05,0.33c-0.31,0.22-0.66,0.67-1.04,1.35v-1.46h-1.47v9.65h1.63v-5.05
				c0-0.68,0.09-1.33,0.28-1.91c0.12-0.38,0.32-0.68,0.6-0.89c0.29-0.21,0.61-0.32,0.96-0.32c0.4,0,0.8,0.12,1.2,0.35l0.56-1.52
				C256,41.3,255.44,41.12,254.89,41.12"/>
		</g>
	</g>
</g>
</svg>
